<svg xmlns="http://www.w3.org/2000/svg" width="67" height="33" viewBox="0 0 67 33" fill="none">
    <g clip-path="url(#clip0_39_198)">
        <path d="M16.5383 15.9136C16.5676 15.9136 16.5969 15.9136 16.6262 15.9136L27.2295 9.96756C29.7485 8.5616 30.6565 5.33961 29.2505 2.76201C27.8739 0.184419 24.7105 -0.752887 22.1915 0.653073L4.00185 10.8463C3.91397 10.9049 3.91397 11.022 4.03114 11.0513L16.5383 15.9136Z" fill="#E84435"/>
        <path d="M24.2713 32.0824C26.0581 32.1117 27.8155 31.2037 28.8114 29.5341C30.2759 27.0444 29.4851 23.7638 27.0247 22.2407L8.98151 11.0809C6.52108 9.55774 3.32838 10.3486 1.86384 12.8676C0.399295 15.3573 1.19015 18.6379 3.65058 20.161L21.6937 31.3208C22.4846 31.8188 23.3926 32.0824 24.2713 32.0824Z" fill="#2376E5"/>
        <path d="M42.4025 32.5214C43.2812 32.5507 44.1892 32.3456 45.0093 31.877L63.2282 21.6838C63.3161 21.6252 63.3161 21.508 63.2282 21.4788L50.8382 16.5286C50.8089 16.5286 50.7796 16.5286 50.7503 16.5286L39.9713 22.5625C37.4523 23.9685 36.5443 27.1905 37.9502 29.7681C38.8876 31.4962 40.6157 32.4628 42.4025 32.5214Z" fill="#F6BA17"/>
        <path d="M60.8265 22.2105C62.6132 22.2398 64.3707 21.3318 65.3666 19.6622C66.8311 17.1725 66.0403 13.8919 63.5798 12.3688L45.5367 1.20905C43.0763 -0.314079 39.8836 0.476773 38.419 2.99579C36.9545 5.48551 37.7453 8.76608 40.2058 10.2892L58.2489 21.449C59.0398 21.9176 59.9478 22.1812 60.8265 22.2105Z" fill="#089D57"/>
    </g>
    <defs>
        <clipPath id="clip0_39_198">
            <rect width="66" height="33" fill="white" transform="translate(0.61499)"/>
        </clipPath>
    </defs>
</svg>
